<svg width="512" height="512" viewBox="0 0 512 512" fill="none" xmlns="http://www.w3.org/2000/svg">
<path fill-rule="evenodd" clip-rule="evenodd" d="M451.732 264.232L422.161 234.661C419.817 232.317 418.5 229.138 418.5 225.822V189.646C418.5 156.214 415.019 144.091 408.482 131.868C401.946 119.646 392.354 110.054 380.132 103.517C367.909 96.981 355.786 93.5 322.354 93.5H274.536C273.155 93.5 272.036 92.3807 272.036 91C272.036 90.337 272.299 89.7011 272.768 89.2322L302.339 59.6612C304.683 57.317 307.862 56 311.178 56L327.806 56C372.382 56 388.546 60.6413 404.842 69.3566C421.139 78.072 433.928 90.8614 442.643 107.158C451.359 123.454 456 139.618 456 184.194V262.464C456 263.845 454.881 264.964 453.5 264.964C452.837 264.964 452.201 264.701 451.732 264.232Z" fill="#E55737"/>
<path fill-rule="evenodd" clip-rule="evenodd" d="M247.768 451.732L277.339 422.161C279.683 419.817 282.862 418.5 286.178 418.5H322.354C355.786 418.5 367.909 415.019 380.132 408.483C392.354 401.946 401.946 392.354 408.482 380.132C415.019 367.91 418.5 355.786 418.5 322.354V274.536C418.5 273.155 419.619 272.036 421 272.036C421.663 272.036 422.299 272.299 422.768 272.768L452.339 302.339C454.683 304.683 456 307.862 456 311.178V327.806C456 372.382 451.359 388.546 442.643 404.842C433.928 421.139 421.139 433.928 404.842 442.643C388.546 451.359 372.382 456 327.806 456H249.536C248.155 456 247.036 454.881 247.036 453.5C247.036 452.837 247.299 452.201 247.768 451.732Z" fill="#F6C943"/>
<path fill-rule="evenodd" clip-rule="evenodd" d="M60.2678 247.768L89.8388 277.339C92.183 279.683 93.5 282.863 93.5 286.178V322.354C93.5 355.786 96.981 367.91 103.517 380.132C110.054 392.354 119.646 401.946 131.868 408.483C144.091 415.019 156.214 418.5 189.646 418.5H237.464C238.845 418.5 239.964 419.619 239.964 421C239.964 421.663 239.701 422.299 239.232 422.768L209.661 452.339C207.317 454.683 204.138 456 200.822 456H184.194C139.618 456 123.454 451.359 107.158 442.643C90.8614 433.928 78.072 421.139 69.3566 404.842C60.6413 388.546 56 372.382 56 327.806V249.536C56 248.155 57.1193 247.036 58.5 247.036C59.163 247.036 59.7989 247.299 60.2678 247.768Z" fill="#7B8FEC"/>
<path fill-rule="evenodd" clip-rule="evenodd" d="M264.232 60.2678L234.661 89.8388C232.317 92.183 229.138 93.5 225.822 93.5H189.646C156.214 93.5 144.091 96.981 131.868 103.517C119.646 110.054 110.054 119.646 103.517 131.868C96.981 144.091 93.5 156.214 93.5 189.646V237.464C93.5 238.845 92.3807 239.964 91 239.964C90.337 239.964 89.7011 239.701 89.2322 239.232L59.6612 209.661C57.317 207.317 56 204.138 56 200.822L56 184.194C56 139.618 60.6413 123.454 69.3566 107.158C78.072 90.8614 90.8614 78.072 107.158 69.3566C123.454 60.6413 139.618 56 184.194 56L262.464 56C263.845 56 264.964 57.1193 264.964 58.5C264.964 59.163 264.701 59.7989 264.232 60.2678Z" fill="#D77EE9"/>
<path fill-rule="evenodd" clip-rule="evenodd" d="M389.273 201.96L348.95 163.423C346.284 160.756 343.165 158.818 339.841 157.608C337.092 156.569 334.112 156 331 156H212.008C210.627 156 209.508 154.881 209.508 153.5C209.508 152.837 209.771 152.2 210.241 151.732L239.839 122.157C242.183 119.816 245.361 118.5 248.675 118.5H343.5C371.114 118.5 393.5 140.886 393.5 168.5V200.153C393.5 201.533 392.381 202.653 391 202.653C390.357 202.653 389.738 202.404 389.273 201.96Z" fill="#E55737"/>
<path fill-rule="evenodd" clip-rule="evenodd" d="M310.04 389.304L348.577 348.982C351.244 346.315 353.182 343.196 354.392 339.872C355.431 337.124 356 334.144 356 331.032V212.039C356 210.658 357.119 209.539 358.5 209.539C359.163 209.539 359.799 209.803 360.268 210.272L389.842 239.871C392.184 242.215 393.5 245.393 393.5 248.706V343.532C393.5 371.146 371.114 393.532 343.5 393.532H311.847C310.467 393.532 309.347 392.412 309.347 391.032C309.347 390.388 309.595 389.769 310.04 389.304Z" fill="#F6C943"/>
<path fill-rule="evenodd" clip-rule="evenodd" d="M122.727 310.04L163.05 348.577C165.716 351.244 168.835 353.182 172.159 354.392C174.908 355.431 177.888 356 181 356H299.992C301.373 356 302.492 357.119 302.492 358.5C302.492 359.163 302.229 359.8 301.759 360.269L272.161 389.843C269.817 392.185 266.639 393.5 263.325 393.5H168.5C140.886 393.5 118.5 371.114 118.5 343.5V311.848C118.5 310.467 119.619 309.348 121 309.348C121.643 309.348 122.262 309.596 122.727 310.04Z" fill="#7B8FEC"/>
<path fill-rule="evenodd" clip-rule="evenodd" d="M201.96 122.727L163.423 163.05C160.756 165.716 158.818 168.835 157.608 172.159C156.569 174.908 156 177.888 156 181V299.992C156 301.373 154.881 302.492 153.5 302.492C152.837 302.492 152.2 302.229 151.732 301.759L122.157 272.161C119.816 269.817 118.5 266.639 118.5 263.325V168.5C118.5 140.886 140.886 118.5 168.5 118.5H200.153C201.533 118.5 202.653 119.619 202.653 121C202.653 121.643 202.404 122.262 201.96 122.727Z" fill="#D77EE9"/>
</svg>
